<?xml version="1.0" standalone="no"?><!DOCTYPE svg PUBLIC "-//W3C//DTD SVG 1.1//EN" "http://www.w3.org/Graphics/SVG/1.1/DTD/svg11.dtd"><svg t="1528307014595" class="icon" style="" viewBox="0 0 1024 1024" version="1.1" xmlns="http://www.w3.org/2000/svg" p-id="860" xmlns:xlink="http://www.w3.org/1999/xlink" width="200" height="200"><defs><style type="text/css"></style></defs><path d="M535.808 73.024l190.336 189.952a33.664 33.664 0 0 1-47.552 47.424L488.192 120.512a33.472 33.472 0 0 1 0-47.488 33.728 33.728 0 0 1 47.616 0z" p-id="861"></path><path d="M535.808 73.024a33.536 33.536 0 0 1 0 47.488L345.408 310.4a33.728 33.728 0 0 1-47.616 0 33.472 33.472 0 0 1 0-47.424l190.4-189.952a33.728 33.728 0 0 1 47.616 0zM345.408 713.6l190.4 189.888a33.536 33.536 0 1 1-47.616 47.488l-190.4-189.952a33.472 33.472 0 0 1 0-47.424 33.728 33.728 0 0 1 47.616 0z" p-id="862"></path><path d="M726.144 713.6a33.344 33.344 0 0 1 0 47.424l-190.336 189.952a33.728 33.728 0 0 1-47.616 0 33.472 33.472 0 0 1 0-47.488l190.4-189.888a33.664 33.664 0 0 1 47.552 0z" p-id="863"></path></svg>