<?xml version="1.0" standalone="no"?><!DOCTYPE svg PUBLIC "-//W3C//DTD SVG 1.1//EN" "http://www.w3.org/Graphics/SVG/1.1/DTD/svg11.dtd"><svg t="1528467239819" class="icon" style="" viewBox="0 0 1024 1024" version="1.1" xmlns="http://www.w3.org/2000/svg" p-id="2537" xmlns:xlink="http://www.w3.org/1999/xlink" width="200" height="200"><defs><style type="text/css"></style></defs><path d="M960 0 531.2 0C499.2 0 492.8 12.8 460.8 51.2L38.4 473.6c-51.2 51.2-51.2 134.4 0 185.6l326.4 326.4c51.2 51.2 134.4 51.2 185.6 0l422.4-422.4C1004.8 537.6 1024 524.8 1024 486.4L1024 64C1024 25.6 998.4 0 960 0L960 0zM556.8 889.6 512 934.4l0 0c-25.6 25.6-70.4 25.6-96 0L89.6 608C64 582.4 64 537.6 89.6 512l44.8-44.8 44.8-44.8 326.4-326.4C524.8 83.2 550.4 64 563.2 64l364.8 0C947.2 64 960 76.8 960 89.6l0 364.8 0 0c0 19.2-12.8 44.8-32 57.6l-326.4 326.4L556.8 889.6zM627.2 211.2C576 262.4 576 345.6 627.2 396.8s134.4 51.2 185.6 0c51.2-51.2 51.2-134.4 0-185.6C761.6 160 678.4 160 627.2 211.2L627.2 211.2zM768 352c-25.6 25.6-70.4 25.6-96 0s-25.6-70.4 0-96 70.4-25.6 96 0C793.6 288 793.6 326.4 768 352L768 352z" p-id="2538" fill="#ffffff"></path><path d="M655.790931 666.19687l-294.1536-294.1536 63.35616-63.35616 294.1536 294.1536-63.35616 63.35616Z" p-id="2539" fill="#ffffff"></path><path d="M526.319078 799.944717l-294.1536-294.1536 63.35616-63.35616 294.1536 294.1536-63.35616 63.35616Z" p-id="2540" fill="#ffffff"></path></svg>