<?xml version="1.0" standalone="no"?><!DOCTYPE svg PUBLIC "-//W3C//DTD SVG 1.1//EN" "http://www.w3.org/Graphics/SVG/1.1/DTD/svg11.dtd"><svg t="1528306726995" class="icon" style="" viewBox="0 0 1024 1024" version="1.1" xmlns="http://www.w3.org/2000/svg" p-id="1823" xmlns:xlink="http://www.w3.org/1999/xlink" width="200" height="200"><defs><style type="text/css"></style></defs><path d="M583.902098 510.288009l421.831374-419.647639c19.946284-19.847024 20.048615-52.006468 0.201591-71.952752-19.891026-19.993357-51.997258-20.047592-71.945589-0.201591L512.048607 438.180737 93.782432 18.641569C73.98248-1.204431 41.778011-1.305739 21.830703 18.540262 1.929444 38.385239 1.881348 70.590731 21.729395 90.539063l418.166915 419.439908L18.267551 929.370783c-19.948331 19.844977-20.047592 52.004421-0.202615 71.951729 9.921977 9.978259 22.99676 15.008832 36.071543 15.008832 12.975523 0 25.957185-4.928243 35.880185-14.806217L511.745708 582.030983l422.088224 423.360194c9.923 9.977235 22.951735 14.96176 36.027541 14.96176 13.027711 0 26.002211-4.984524 35.924187-14.860453 19.891026-19.847024 19.946284-51.997258 0.101307-71.945589L583.902098 510.288009 583.902098 510.288009z" p-id="1824" fill="#ffffff"></path></svg>