<?xml version="1.0" standalone="no"?><!DOCTYPE svg PUBLIC "-//W3C//DTD SVG 1.1//EN" "http://www.w3.org/Graphics/SVG/1.1/DTD/svg11.dtd"><svg t="1528350915172" class="icon" style="" viewBox="0 0 1024 1024" version="1.1" xmlns="http://www.w3.org/2000/svg" p-id="1761" xmlns:xlink="http://www.w3.org/1999/xlink" width="200" height="200"><defs><style type="text/css"></style></defs><path d="M512 64c246.976 0 448 200.96 448 448 0 246.976-201.024 448-448 448-247.04 0-448-201.024-448-448C64 264.96 264.96 64 512 64M512 0C229.248 0 0 229.248 0 512c0 282.752 229.248 512 512 512 282.752 0 512-229.248 512-512C1024 229.248 794.752 0 512 0L512 0zM448 448C441.024 361.984 388.992 320 314.304 320 314.112 320 313.984 320 313.792 320 241.344 320 192 384 189.696 448.768l64.256 1.088C252.992 401.024 276.224 375.168 320.32 375.104 363.392 374.976 385.984 411.008 384 448L448 448zM832 448c-6.976-86.016-59.008-128-133.76-128-0.128 0-0.256 0-0.448 0C625.344 320 576 384 573.696 448.768l64.256 1.088c-1.024-48.832 22.272-74.624 66.304-74.688C747.392 374.976 769.984 411.008 768 448L832 448zM833.152 576l-57.152 0c-67.008 121.024-148.032 196.992-284.096 190.08C380.928 760.384 285.632 681.984 256 576L187.904 576.256c37.248 133.056 160.256 242.368 299.136 253.056 8.32 0.64 16.64 1.408 24.832 1.408C657.024 830.72 784 710.976 833.152 576z" p-id="1762"></path></svg>