<?xml version="1.0" standalone="no"?><!DOCTYPE svg PUBLIC "-//W3C//DTD SVG 1.1//EN" "http://www.w3.org/Graphics/SVG/1.1/DTD/svg11.dtd"><svg t="1528472517282" class="icon" style="" viewBox="0 0 1024 1024" version="1.1" xmlns="http://www.w3.org/2000/svg" p-id="3036" xmlns:xlink="http://www.w3.org/1999/xlink" width="200" height="200"><defs><style type="text/css"></style></defs><path d="M512.187265 63.952544c-246.657726 0-447.325002 200.670346-447.325002 447.325002s200.667276 447.325002 447.325002 447.325002 447.325002-200.670346 447.325002-447.325002S758.846014 63.952544 512.187265 63.952544zM512.187265 902.68705c-215.823464 0-391.409504-175.586041-391.409504-391.409504S296.363801 119.868041 512.187265 119.868041 903.596769 295.454082 903.596769 511.277546 728.010729 902.68705 512.187265 902.68705zM316.483025 371.488803l391.409504 0 0-55.915497L316.483025 315.573305 316.483025 371.488803zM316.483025 539.235294l391.409504 0 0-55.915497L316.483025 483.319797 316.483025 539.235294zM316.483025 706.98281l391.409504 0 0-55.915497L316.483025 651.067312 316.483025 706.98281z" p-id="3037"></path></svg>