<?xml version="1.0" standalone="no"?><!DOCTYPE svg PUBLIC "-//W3C//DTD SVG 1.1//EN" "http://www.w3.org/Graphics/SVG/1.1/DTD/svg11.dtd"><svg t="1528190771765" class="icon" style="" viewBox="0 0 1024 1024" version="1.1" xmlns="http://www.w3.org/2000/svg" p-id="2434" xmlns:xlink="http://www.w3.org/1999/xlink" width="200" height="200"><defs><style type="text/css"></style></defs><path d="M511.5 386.6c-55.7 0-101 45.3-101 101 0 55.7 45.3 101 101 101 55.7 0 101-45.3 101-101C612.5 431.9 567.2 386.6 511.5 386.6zM511.5 538.1c-27.8 0-50.5-22.6-50.5-50.5 0-27.8 22.7-50.5 50.5-50.5 27.8 0 50.5 22.7 50.5 50.5C562 515.4 539.3 538.1 511.5 538.1z" p-id="2435" fill="#ffffff"></path><path d="M107.5 386.6c-55.7 0-101 45.3-101 101 0 55.7 45.3 101 101 101 55.7 0 101-45.3 101-101C208.5 431.9 163.2 386.6 107.5 386.6zM107.5 538.1c-27.8 0-50.5-22.6-50.5-50.5 0-27.8 22.7-50.5 50.5-50.5 27.8 0 50.5 22.7 50.5 50.5C158 515.4 135.3 538.1 107.5 538.1z" p-id="2436" fill="#ffffff"></path><path d="M915.5 386.6c-55.7 0-101 45.3-101 101 0 55.7 45.3 101 101 101 55.7 0 101-45.3 101-101C1016.5 431.9 971.2 386.6 915.5 386.6zM915.5 538.1c-27.8 0-50.5-22.6-50.5-50.5 0-27.8 22.7-50.5 50.5-50.5 27.8 0 50.5 22.7 50.5 50.5C966 515.4 943.3 538.1 915.5 538.1z" p-id="2437" fill="#ffffff"></path></svg>