<?xml version="1.0" standalone="no"?><!DOCTYPE svg PUBLIC "-//W3C//DTD SVG 1.1//EN" "http://www.w3.org/Graphics/SVG/1.1/DTD/svg11.dtd"><svg t="1528605065547" class="icon" style="" viewBox="0 0 1024 1024" version="1.1" xmlns="http://www.w3.org/2000/svg" p-id="4448" xmlns:xlink="http://www.w3.org/1999/xlink" width="200" height="200"><defs><style type="text/css"></style></defs><path d="M974.933333 731.733333 974.933333 731.733333l-448-469.333333 0 0C522.666667 258.133333 518.4 256 512 256c-6.4 0-10.666667 2.133333-14.933333 6.4l0 0-448 469.333333 0 0C44.8 736 42.666667 740.266667 42.666667 746.666667c0 12.8 8.533333 21.333333 21.333333 21.333333l896 0c12.8 0 21.333333-8.533333 21.333333-21.333333C981.333333 740.266667 979.2 736 974.933333 731.733333zM113.066667 725.333333 512 307.2 910.933333 725.333333 113.066667 725.333333z" p-id="4449"></path></svg>