<?xml version="1.0" standalone="no"?><!DOCTYPE svg PUBLIC "-//W3C//DTD SVG 1.1//EN" "http://www.w3.org/Graphics/SVG/1.1/DTD/svg11.dtd"><svg t="1528605060256" class="icon" style="" viewBox="0 0 1024 1024" version="1.1" xmlns="http://www.w3.org/2000/svg" p-id="4333" xmlns:xlink="http://www.w3.org/1999/xlink" width="200" height="200"><defs><style type="text/css"></style></defs><path d="M981.333333 277.333333c0-12.8-8.533333-21.333333-21.333333-21.333333L64 256c-12.8 0-21.333333 8.533333-21.333333 21.333333 0 6.4 2.133333 10.666667 6.4 14.933333l0 0 448 469.333333 0 0c4.266667 4.266667 8.533333 6.4 14.933333 6.4 6.4 0 10.666667-2.133333 14.933333-6.4l0 0 448-469.333333 0 0C979.2 288 981.333333 283.733333 981.333333 277.333333zM512 716.8 113.066667 298.666667l795.733333 0L512 716.8z" p-id="4334"></path></svg>