<?xml version="1.0" standalone="no"?><!DOCTYPE svg PUBLIC "-//W3C//DTD SVG 1.1//EN" "http://www.w3.org/Graphics/SVG/1.1/DTD/svg11.dtd"><svg t="1528605190326" class="icon" style="" viewBox="0 0 1024 1024" version="1.1" xmlns="http://www.w3.org/2000/svg" p-id="4563" xmlns:xlink="http://www.w3.org/1999/xlink" width="200" height="200"><defs><style type="text/css"></style></defs><path d="M932.266667 689.066667l-405.333333-384C522.666667 300.8 518.4 298.666667 512 298.666667c-6.4 0-10.666667 2.133333-14.933333 6.4l-405.333333 384C87.466667 693.333333 85.333333 697.6 85.333333 704c0 12.8 8.533333 21.333333 21.333333 21.333333 6.4 0 10.666667-2.133333 14.933333-6.4L512 349.866667l390.4 369.066667c4.266667 4.266667 8.533333 6.4 14.933333 6.4 12.8 0 21.333333-8.533333 21.333333-21.333333C938.666667 697.6 936.533333 693.333333 932.266667 689.066667z" p-id="4564"></path></svg>